<?xml version="1.0" standalone="no"?>
<!DOCTYPE svg PUBLIC "-//W3C//DTD SVG 20010904//EN"
 "http://www.w3.org/TR/2001/REC-SVG-20010904/DTD/svg10.dtd">
<svg version="1.0" xmlns="http://www.w3.org/2000/svg"
 width="1024.000000pt" height="1024.000000pt" viewBox="0 0 1024.000000 1024.000000"
 preserveAspectRatio="xMidYMid meet">

<g transform="translate(0.000000,1024.000000) scale(0.100000,-0.100000)"
fill="#000000" stroke="none">
<path d="M0 5120 l0 -5120 5120 0 5120 0 0 5120 0 5120 -5120 0 -5120 0 0
-5120z m8550 1776 c196 -48 372 -224 425 -426 13 -47 15 -241 15 -1290 0
-1203 -1 -1237 -20 -1307 -30 -109 -97 -215 -184 -290 -47 -40 -158 -99 -231
-122 -45 -14 -374 -16 -3395 -19 -2323 -2 -3366 1 -3414 8 -83 13 -191 56
-244 99 -22 17 -43 27 -47 23 -5 -4 -5 -2 -1 5 4 7 -3 17 -16 24 -26 14 -48
34 -48 44 0 4 -15 26 -34 49 -40 48 -69 111 -91 195 -13 51 -15 223 -15 1291
0 1100 2 1239 16 1294 9 33 17 66 18 72 1 7 7 18 13 25 6 8 20 33 32 56 11 23
53 74 93 114 78 77 189 141 278 158 25 5 1526 9 3420 10 2791 0 3385 -2 3430
-13z"/>
<path d="M1708 6721 c-31 -10 -72 -28 -91 -40 -39 -24 -147 -136 -147 -152 0
-6 -10 -31 -22 -57 l-23 -47 0 -1245 c0 -1169 1 -1248 18 -1296 10 -28 31 -66
47 -85 63 -72 80 -89 89 -89 5 0 11 -6 14 -13 7 -18 106 -65 164 -77 32 -7
1140 -9 3398 -8 l3350 3 70 35 c90 45 162 116 206 205 l34 70 0 1250 0 1250
-32 68 c-18 37 -37 67 -42 67 -6 0 -11 6 -11 13 0 15 -67 83 -102 103 -12 7
-43 24 -68 36 l-45 23 -3375 2 c-3235 2 -3377 1 -3432 -16z m900 -361 c18 -11
39 -35 47 -52 58 -130 417 -923 475 -1048 39 -85 78 -172 87 -193 8 -21 17
-36 19 -34 4 3 90 416 144 687 64 321 120 582 130 600 5 10 22 28 36 39 25 20
39 21 238 21 222 -1 226 -1 259 -50 31 -45 60 111 -384 -2060 -17 -85 -40
-170 -51 -188 -35 -58 -54 -62 -288 -62 l-210 0 -35 33 c-27 25 -69 108 -186
362 -217 473 -348 761 -414 913 -32 72 -61 132 -64 132 -4 0 -16 -51 -28 -112
-22 -114 -238 -1182 -249 -1227 -3 -14 -22 -42 -43 -63 l-39 -38 -195 0 -196
0 -35 30 c-60 53 -74 -44 144 1015 55 270 135 661 177 870 75 371 77 381 109
413 l32 32 244 0 c225 0 245 -2 276 -20z m2320 -15 c16 -16 109 -174 207 -350
98 -176 179 -322 181 -324 6 -6 136 136 486 532 77 87 151 163 165 168 13 5
128 9 254 9 l230 0 24 -25 c17 -16 25 -35 25 -60 0 -31 -11 -47 -83 -123 -292
-307 -822 -902 -821 -922 0 -14 409 -739 571 -1014 29 -50 53 -102 53 -117 0
-36 -42 -85 -84 -99 -42 -13 -455 -7 -482 8 -46 25 -38 11 -332 550 -64 117
-121 211 -127 209 -10 -3 -383 -432 -552 -635 -47 -57 -98 -109 -114 -117 -22
-12 -77 -15 -263 -15 l-234 0 -26 31 c-51 60 -49 63 211 351 306 340 516 572
524 578 26 22 189 213 189 222 0 11 -34 73 -105 193 -23 39 -128 219 -233 400
-104 182 -209 361 -231 400 -49 84 -52 116 -11 156 l29 30 261 -3 260 -3 28
-30z m3267 11 c224 -66 378 -216 430 -421 19 -75 19 -229 0 -320 -51 -238
-255 -456 -492 -526 -24 -7 -43 -17 -43 -23 0 -11 27 -62 224 -431 168 -313
201 -375 226 -422 17 -33 20 -52 15 -82 -9 -54 -64 -111 -108 -112 -18 0 -119
0 -225 0 -246 0 -241 -3 -325 162 -31 63 -136 267 -231 454 l-175 340 -95 3
c-83 2 -95 1 -100 -15 -2 -10 -41 -200 -86 -423 -45 -223 -89 -420 -97 -438
-20 -43 -68 -82 -101 -82 -15 0 -109 -1 -209 -3 -205 -2 -219 2 -256 76 l-19
37 46 228 c26 125 85 416 131 647 105 520 201 990 220 1073 13 57 13 70 0 124
-19 72 -9 114 37 153 l31 26 571 -4 c510 -3 577 -5 631 -21z"/>
<path d="M7500 5977 c0 -2 -25 -126 -55 -277 -30 -151 -55 -278 -55 -283 0 -5
85 -7 198 -5 180 4 202 6 257 28 117 48 185 144 193 272 4 69 2 84 -23 133
-54 112 -114 135 -346 135 -93 0 -169 -1 -169 -3z"/>
</g>
</svg>
